{
	"asset":{
		"generator":"Khronos glTF Blender I/O v4.1.63",
		"version":"2.0"
	},
	"extensionsUsed":[
		"KHR_materials_emissive_strength",
		"KHR_materials_specular",
		"KHR_materials_sheen",
		"KHR_materials_anisotropy",
		"KHR_materials_ior"
	],
	"scene":0,
	"scenes":[
		{
			"name":"Scene",
			"nodes":[
				0,
				1,
				2,
				3,
				4,
				5,
				6,
				7,
				8,
				9,
				10,
				11,
				12
			]
		}
	],
	"nodes":[
		{
			"mesh":0,
			"name":"Cube",
			"rotation":[
				-0.6151084303855896,
				0,
				0,
				0.7884426116943359
			],
			"scale":[
				1.0661652088165283,
				1.0661652088165283,
				1.0661652088165283
			],
			"translation":[
				0,
				1.2835637331008911,
				5.530950546264648
			]
		},
		{
			"mesh":1,
			"name":"Cube.003",
			"rotation":[
				0,
				-0.7884426116943359,
				0.6151083707809448,
				2.256565778679942e-07
			],
			"scale":[
				1.0914711952209473,
				1.0914711952209473,
				1.0914711952209473
			],
			"translation":[
				0,
				-0.43593597412109375,
				12.386484146118164
			]
		},
		{
			"mesh":2,
			"name":"Cube.004",
			"rotation":[
				-0.6151084303855896,
				0,
				0,
				0.7884426116943359
			],
			"scale":[
				1.0661652088165283,
				1.0661652088165283,
				1.0661652088165283
			],
			"translation":[
				0,
				-0.6764869689941406,
				13.345544815063477
			]
		},
		{
			"mesh":3,
			"name":"Cube.005",
			"rotation":[
				-0.2665621340274811,
				0,
				0,
				0.963817834854126
			],
			"scale":[
				0.6668073534965515,
				0.38517922163009644,
				0.38517922163009644
			],
			"translation":[
				0,
				-0.5688414573669434,
				12.916370391845703
			]
		},
		{
			"mesh":4,
			"name":"Cube.006",
			"rotation":[
				-0.6151083111763,
				0,
				0,
				0.7884426116943359
			],
			"scale":[
				0.551723837852478,
				0.10103388875722885,
				0.551723837852478
			],
			"translation":[
				0,
				-0.6888470649719238,
				13.394826889038086
			]
		},
		{
			"mesh":5,
			"name":"Cube.007",
			"rotation":[
				-0.6151083707809448,
				0,
				0,
				0.7884426116943359
			],
			"scale":[
				0.5233858823776245,
				0.3949465751647949,
				0.5233858823776245
			],
			"translation":[
				0,
				-0.7386665344238281,
				13.593454360961914
			]
		},
		{
			"mesh":6,
			"name":"text.001",
			"rotation":[
				0,
				-0.12256573140621185,
				0.9924604296684265,
				1.768028141668765e-07
			],
			"scale":[
				0.0699210986495018,
				0.0699210986495018,
				0.0699210986495018
			],
			"translation":[
				0.7297186851501465,
				2.0237979888916016,
				-4.127303123474121
			]
		},
		{
			"mesh":7,
			"name":"text(2).001",
			"rotation":[
				0.12256582826375961,
				0,
				0,
				0.9924603700637817
			],
			"scale":[
				0.059589117765426636,
				0.059589117765426636,
				0.059589117765426636
			],
			"translation":[
				-0.5442562699317932,
				4.203718662261963,
				0.6399478912353516
			]
		},
		{
			"mesh":8,
			"name":"Cube.008",
			"rotation":[
				-0.6151083111763,
				0,
				0,
				0.7884426116943359
			],
			"scale":[
				1,
				0.31848806142807007,
				1.636932373046875
			],
			"translation":[
				0,
				3.3866004943847656,
				-2.8537216186523438
			]
		},
		{
			"mesh":9,
			"name":"Cube.009",
			"rotation":[
				-0.6151083111763,
				0,
				0,
				0.7884426116943359
			],
			"scale":[
				0.8519043922424316,
				0.1699904501438141,
				0.14748424291610718
			],
			"translation":[
				0,
				2.301238536834717,
				-3.4419212341308594
			]
		},
		{
			"mesh":10,
			"name":"Cube.011",
			"rotation":[
				-0.6151083707809448,
				0,
				0,
				0.7884426712989807
			],
			"scale":[
				0.7937381267547607,
				0.23107364773750305,
				1.153752326965332
			],
			"translation":[
				0,
				3.23819637298584,
				-2.262042999267578
			]
		},
		{
			"mesh":11,
			"name":"Cube.012",
			"rotation":[
				-0.6151083707809448,
				0,
				0,
				0.7884426116943359
			],
			"scale":[
				0.2998916804790497,
				18.035743713378906,
				1.0995244979858398
			],
			"translation":[
				0,
				3.601828098297119,
				-3.7118186950683594
			]
		},
		{
			"mesh":12,
			"name":"Cube.010",
			"rotation":[
				-0.6151083707809448,
				0,
				0,
				0.7884426116943359
			],
			"scale":[
				0.2998916804790497,
				18.035743713378906,
				1.0995244979858398
			],
			"translation":[
				0,
				3.601828098297119,
				-3.7118186950683594
			]
		}
	],
	"materials":[
		{
			"doubleSided":true,
			"name":"Material.013",
			"pbrMetallicRoughness":{
				"baseColorFactor":[
					0.021681884303689003,
					0.023108728229999542,
					0.02924411930143833,
					1
				],
				"roughnessFactor":0.24770641326904297
			}
		},
		{
			"doubleSided":true,
			"name":"Material.028",
			"pbrMetallicRoughness":{
				"baseColorFactor":[
					0.5750832557678223,
					0.3145093321800232,
					0.08665130287408829,
					1
				],
				"roughnessFactor":0
			}
		},
		{
			"doubleSided":true,
			"emissiveFactor":[
				0,
				1,
				1
			],
			"extensions":{
				"KHR_materials_emissive_strength":{
					"emissiveStrength":64
				}
			},
			"name":"Material.002",
			"pbrMetallicRoughness":{
				"baseColorFactor":[
					0,
					0,
					0,
					1
				]
			}
		},
		{
			"doubleSided":true,
			"name":"Material.006",
			"pbrMetallicRoughness":{
				"baseColorFactor":[
					0.03505475074052811,
					0.038625698536634445,
					0.053582288324832916,
					1
				],
				"metallicFactor":0,
				"roughnessFactor":0.5
			}
		},
		{
			"alphaMode":"BLEND",
			"doubleSided":true,
			"name":"Material.007",
			"pbrMetallicRoughness":{
				"baseColorFactor":[
					0.800000011920929,
					0.800000011920929,
					0.800000011920929,
					0.10000000149011612
				],
				"metallicFactor":0.36134451627731323,
				"roughnessFactor":0.06722689419984818
			}
		},
		{
			"doubleSided":true,
			"emissiveFactor":[
				0,
				1,
				1
			],
			"extensions":{
				"KHR_materials_emissive_strength":{
					"emissiveStrength":64
				}
			},
			"name":"Material",
			"pbrMetallicRoughness":{
				"baseColorFactor":[
					0,
					0,
					0,
					1
				]
			}
		},
		{
			"doubleSided":true,
			"emissiveFactor":[
				0,
				1,
				1
			],
			"extensions":{
				"KHR_materials_emissive_strength":{
					"emissiveStrength":64
				}
			},
			"name":"Material.011",
			"pbrMetallicRoughness":{
				"baseColorFactor":[
					0,
					0,
					0,
					1
				]
			}
		},
		{
			"doubleSided":true,
			"name":"Material.012",
			"pbrMetallicRoughness":{
				"baseColorFactor":[
					0.021681884303689003,
					0.023108728229999542,
					0.02924411930143833,
					1
				],
				"roughnessFactor":0.24770641326904297
			}
		},
		{
			"doubleSided":true,
			"name":"Material.014",
			"pbrMetallicRoughness":{
				"baseColorFactor":[
					0.021681884303689003,
					0.023108728229999542,
					0.02924411930143833,
					1
				],
				"roughnessFactor":0.24770641326904297
			}
		},
		{
			"doubleSided":true,
			"extensions":{
				"KHR_materials_specular":{
					"specularColorFactor":[
						1.4072726964950562,
						1.4072726964950562,
						1.4072726964950562
					]
				},
				"KHR_materials_sheen":{
					"sheenColorFactor":[
						1.0,
						1.0,
						1.0
					],
					"sheenRoughnessFactor":0.5
				},
				"KHR_materials_anisotropy":{
					"anisotropyStrength":1,
					"anisotropyRotation":2.9974829108634227
				},
				"KHR_materials_ior":{
					"ior":0
				}
			},
			"name":"Material.008",
			"pbrMetallicRoughness":{
				"baseColorFactor":[
					0.09989859908819199,
					0.11193230748176575,
					0.13563336431980133,
					1
				],
				"roughnessFactor":0.06909091770648956
			}
		},
		{
			"doubleSided":true,
			"name":"Material.029",
			"pbrMetallicRoughness":{
				"baseColorFactor":[
					0.299865186214447,
					0.299865186214447,
					0.299865186214447,
					1
				],
				"roughnessFactor":0.3403361439704895
			}
		}
	],
	"meshes":[
		{
			"name":"Cube.001",
			"primitives":[
				{
					"attributes":{
						"POSITION":0,
						"NORMAL":1,
						"TEXCOORD_0":2
					},
					"indices":3,
					"material":0
				}
			]
		},
		{
			"name":"Cube.006",
			"primitives":[
				{
					"attributes":{
						"POSITION":4,
						"NORMAL":5,
						"TEXCOORD_0":6
					},
					"indices":7,
					"material":1
				}
			]
		},
		{
			"name":"Cube.007",
			"primitives":[
				{
					"attributes":{
						"POSITION":8,
						"NORMAL":9,
						"TEXCOORD_0":10
					},
					"indices":11,
					"material":1
				}
			]
		},
		{
			"name":"Cube",
			"primitives":[
				{
					"attributes":{
						"POSITION":12,
						"NORMAL":13,
						"TEXCOORD_0":14
					},
					"indices":15,
					"material":2
				}
			]
		},
		{
			"name":"Cube.003",
			"primitives":[
				{
					"attributes":{
						"POSITION":16,
						"NORMAL":17,
						"TEXCOORD_0":18
					},
					"indices":19,
					"material":3
				}
			]
		},
		{
			"name":"Cube.004",
			"primitives":[
				{
					"attributes":{
						"POSITION":20,
						"NORMAL":21,
						"TEXCOORD_0":22
					},
					"indices":23,
					"material":4
				}
			]
		},
		{
			"name":"text.001",
			"primitives":[
				{
					"attributes":{
						"POSITION":24,
						"NORMAL":25
					},
					"indices":26,
					"material":5
				}
			]
		},
		{
			"name":"text(2).001",
			"primitives":[
				{
					"attributes":{
						"POSITION":27,
						"NORMAL":28
					},
					"indices":29,
					"material":6
				}
			]
		},
		{
			"name":"Cube.011",
			"primitives":[
				{
					"attributes":{
						"POSITION":30,
						"NORMAL":31,
						"TEXCOORD_0":32
					},
					"indices":33,
					"material":1
				}
			]
		},
		{
			"name":"Cube.012",
			"primitives":[
				{
					"attributes":{
						"POSITION":34,
						"NORMAL":35,
						"TEXCOORD_0":36
					},
					"indices":37,
					"material":7
				},
				{
					"attributes":{
						"POSITION":38,
						"NORMAL":39,
						"TEXCOORD_0":40
					},
					"indices":41,
					"material":7
				}
			]
		},
		{
			"name":"Cube.014",
			"primitives":[
				{
					"attributes":{
						"POSITION":42,
						"NORMAL":43,
						"TEXCOORD_0":44
					},
					"indices":45,
					"material":8
				}
			]
		},
		{
			"name":"Cube.008",
			"primitives":[
				{
					"attributes":{
						"POSITION":46,
						"NORMAL":47,
						"TEXCOORD_0":48
					},
					"indices":49,
					"material":9
				}
			]
		},
		{
			"name":"Cube.010",
			"primitives":[
				{
					"attributes":{
						"POSITION":50,
						"NORMAL":51,
						"TEXCOORD_0":52
					},
					"indices":53,
					"material":10
				}
			]
		}
	],
	"accessors":[
		{
			"bufferView":0,
			"componentType":5126,
			"count":669,
			"max":[
				0.581992506980896,
				8.00744915008545,
				1
			],
			"min":[
				-0.581992506980896,
				-7.574458599090576,
				-1
			],
			"type":"VEC3"
		},
		{
			"bufferView":1,
			"componentType":5126,
			"count":669,
			"type":"VEC3"
		},
		{
			"bufferView":2,
			"componentType":5126,
			"count":669,
			"type":"VEC2"
		},
		{
			"bufferView":3,
			"componentType":5123,
			"count":3708,
			"type":"SCALAR"
		},
		{
			"bufferView":4,
			"componentType":5126,
			"count":9296,
			"max":[
				0.6425988674163818,
				13.58552360534668,
				1.1070464849472046
			],
			"min":[
				-0.6425988674163818,
				-0.5846699476242065,
				-1.107046365737915
			],
			"type":"VEC3"
		},
		{
			"bufferView":5,
			"componentType":5126,
			"count":9296,
			"type":"VEC3"
		},
		{
			"bufferView":6,
			"componentType":5126,
			"count":9296,
			"type":"VEC2"
		},
		{
			"bufferView":7,
			"componentType":5123,
			"count":46872,
			"type":"SCALAR"
		},
		{
			"bufferView":8,
			"componentType":5126,
			"count":806,
			"max":[
				0.6368212103843689,
				0.5404461026191711,
				1.5964336395263672
			],
			"min":[
				-0.6368212103843689,
				-0.3413430452346802,
				-1.5964336395263672
			],
			"type":"VEC3"
		},
		{
			"bufferView":9,
			"componentType":5126,
			"count":806,
			"type":"VEC3"
		},
		{
			"bufferView":10,
			"componentType":5126,
			"count":806,
			"type":"VEC2"
		},
		{
			"bufferView":11,
			"componentType":5123,
			"count":4788,
			"type":"SCALAR"
		},
		{
			"bufferView":12,
			"componentType":5126,
			"count":1036,
			"max":[
				1,
				28.974178314208984,
				0.9740887880325317
			],
			"min":[
				-1,
				-0.9740887880325317,
				-28.974178314208984
			],
			"type":"VEC3"
		},
		{
			"bufferView":13,
			"componentType":5126,
			"count":1036,
			"type":"VEC3"
		},
		{
			"bufferView":14,
			"componentType":5126,
			"count":1036,
			"type":"VEC2"
		},
		{
			"bufferView":15,
			"componentType":5123,
			"count":4512,
			"type":"SCALAR"
		},
		{
			"bufferView":16,
			"componentType":5126,
			"count":1628,
			"max":[
				1,
				1.9608774185180664,
				1
			],
			"min":[
				-1,
				-4.6545491218566895,
				-1
			],
			"type":"VEC3"
		},
		{
			"bufferView":17,
			"componentType":5126,
			"count":1628,
			"type":"VEC3"
		},
		{
			"bufferView":18,
			"componentType":5126,
			"count":1628,
			"type":"VEC2"
		},
		{
			"bufferView":19,
			"componentType":5123,
			"count":5652,
			"type":"SCALAR"
		},
		{
			"bufferView":20,
			"componentType":5126,
			"count":376,
			"max":[
				1.0341966152191162,
				1.0341968536376953,
				1.0341966152191162
			],
			"min":[
				-1.0341966152191162,
				-1.0341966152191162,
				-1.0341966152191162
			],
			"type":"VEC3"
		},
		{
			"bufferView":21,
			"componentType":5126,
			"count":376,
			"type":"VEC3"
		},
		{
			"bufferView":22,
			"componentType":5126,
			"count":376,
			"type":"VEC2"
		},
		{
			"bufferView":23,
			"componentType":5123,
			"count":1800,
			"type":"SCALAR"
		},
		{
			"bufferView":24,
			"componentType":5126,
			"count":2238,
			"max":[
				19.776458740234375,
				1.0000057220458984,
				2.7936744689941406
			],
			"min":[
				0.3081245422363281,
				-1,
				-38.212745666503906
			],
			"type":"VEC3"
		},
		{
			"bufferView":25,
			"componentType":5126,
			"count":2238,
			"type":"VEC3"
		},
		{
			"bufferView":26,
			"componentType":5123,
			"count":13356,
			"type":"SCALAR"
		},
		{
			"bufferView":27,
			"componentType":5126,
			"count":1543,
			"max":[
				18.93077850341797,
				1,
				2.7095298767089844
			],
			"min":[
				-0.5972709655761719,
				-1.0000019073486328,
				-37.941551208496094
			],
			"type":"VEC3"
		},
		{
			"bufferView":28,
			"componentType":5126,
			"count":1543,
			"type":"VEC3"
		},
		{
			"bufferView":29,
			"componentType":5123,
			"count":9246,
			"type":"SCALAR"
		},
		{
			"bufferView":30,
			"componentType":5126,
			"count":97,
			"max":[
				1,
				13.408556938171387,
				1
			],
			"min":[
				-1,
				-12.433381080627441,
				-1
			],
			"type":"VEC3"
		},
		{
			"bufferView":31,
			"componentType":5126,
			"count":97,
			"type":"VEC3"
		},
		{
			"bufferView":32,
			"componentType":5126,
			"count":97,
			"type":"VEC2"
		},
		{
			"bufferView":33,
			"componentType":5123,
			"count":204,
			"type":"SCALAR"
		},
		{
			"bufferView":34,
			"componentType":5126,
			"count":932,
			"max":[
				1.0000001192092896,
				18.11800765991211,
				19.48273468017578
			],
			"min":[
				-1.0000001192092896,
				-1.0000038146972656,
				-0.9999990463256836
			],
			"type":"VEC3"
		},
		{
			"bufferView":35,
			"componentType":5126,
			"count":932,
			"type":"VEC3"
		},
		{
			"bufferView":36,
			"componentType":5126,
			"count":932,
			"type":"VEC2"
		},
		{
			"bufferView":37,
			"componentType":5123,
			"count":2028,
			"type":"SCALAR"
		},
		{
			"bufferView":38,
			"componentType":5126,
			"count":435,
			"max":[
				0.38141608238220215,
				18.11800765991211,
				16.18598175048828
			],
			"min":[
				-0.38141608238220215,
				-1.0000038146972656,
				0.030692100524902344
			],
			"type":"VEC3"
		},
		{
			"bufferView":39,
			"componentType":5126,
			"count":435,
			"type":"VEC3"
		},
		{
			"bufferView":40,
			"componentType":5126,
			"count":435,
			"type":"VEC2"
		},
		{
			"bufferView":41,
			"componentType":5123,
			"count":1314,
			"type":"SCALAR"
		},
		{
			"bufferView":42,
			"componentType":5126,
			"count":1488,
			"max":[
				3.222717761993408,
				1,
				4.135663032531738
			],
			"min":[
				-3.222717761993408,
				-1,
				-3.676622152328491
			],
			"type":"VEC3"
		},
		{
			"bufferView":43,
			"componentType":5126,
			"count":1488,
			"type":"VEC3"
		},
		{
			"bufferView":44,
			"componentType":5126,
			"count":1488,
			"type":"VEC2"
		},
		{
			"bufferView":45,
			"componentType":5123,
			"count":3192,
			"type":"SCALAR"
		},
		{
			"bufferView":46,
			"componentType":5126,
			"count":23618,
			"max":[
				1.0001329183578491,
				4.08914852142334,
				1
			],
			"min":[
				-1.0001329183578491,
				-0.04864251986145973,
				-4.201802730560303
			],
			"type":"VEC3"
		},
		{
			"bufferView":47,
			"componentType":5126,
			"count":23618,
			"type":"VEC3"
		},
		{
			"bufferView":48,
			"componentType":5126,
			"count":23618,
			"type":"VEC2"
		},
		{
			"bufferView":49,
			"componentType":5123,
			"count":132240,
			"type":"SCALAR"
		},
		{
			"bufferView":50,
			"componentType":5126,
			"count":222,
			"max":[
				1.0001329183578491,
				4.08914852142334,
				1
			],
			"min":[
				-1.0001329183578491,
				0.10372279584407806,
				-4.201802730560303
			],
			"type":"VEC3"
		},
		{
			"bufferView":51,
			"componentType":5126,
			"count":222,
			"type":"VEC3"
		},
		{
			"bufferView":52,
			"componentType":5126,
			"count":222,
			"type":"VEC2"
		},
		{
			"bufferView":53,
			"componentType":5123,
			"count":864,
			"type":"SCALAR"
		}
	],
	"bufferViews":[
		{
			"buffer":0,
			"byteLength":8028,
			"byteOffset":0,
			"target":34962
		},
		{
			"buffer":0,
			"byteLength":8028,
			"byteOffset":8028,
			"target":34962
		},
		{
			"buffer":0,
			"byteLength":5352,
			"byteOffset":16056,
			"target":34962
		},
		{
			"buffer":0,
			"byteLength":7416,
			"byteOffset":21408,
			"target":34963
		},
		{
			"buffer":0,
			"byteLength":111552,
			"byteOffset":28824,
			"target":34962
		},
		{
			"buffer":0,
			"byteLength":111552,
			"byteOffset":140376,
			"target":34962
		},
		{
			"buffer":0,
			"byteLength":74368,
			"byteOffset":251928,
			"target":34962
		},
		{
			"buffer":0,
			"byteLength":93744,
			"byteOffset":326296,
			"target":34963
		},
		{
			"buffer":0,
			"byteLength":9672,
			"byteOffset":420040,
			"target":34962
		},
		{
			"buffer":0,
			"byteLength":9672,
			"byteOffset":429712,
			"target":34962
		},
		{
			"buffer":0,
			"byteLength":6448,
			"byteOffset":439384,
			"target":34962
		},
		{
			"buffer":0,
			"byteLength":9576,
			"byteOffset":445832,
			"target":34963
		},
		{
			"buffer":0,
			"byteLength":12432,
			"byteOffset":455408,
			"target":34962
		},
		{
			"buffer":0,
			"byteLength":12432,
			"byteOffset":467840,
			"target":34962
		},
		{
			"buffer":0,
			"byteLength":8288,
			"byteOffset":480272,
			"target":34962
		},
		{
			"buffer":0,
			"byteLength":9024,
			"byteOffset":488560,
			"target":34963
		},
		{
			"buffer":0,
			"byteLength":19536,
			"byteOffset":497584,
			"target":34962
		},
		{
			"buffer":0,
			"byteLength":19536,
			"byteOffset":517120,
			"target":34962
		},
		{
			"buffer":0,
			"byteLength":13024,
			"byteOffset":536656,
			"target":34962
		},
		{
			"buffer":0,
			"byteLength":11304,
			"byteOffset":549680,
			"target":34963
		},
		{
			"buffer":0,
			"byteLength":4512,
			"byteOffset":560984,
			"target":34962
		},
		{
			"buffer":0,
			"byteLength":4512,
			"byteOffset":565496,
			"target":34962
		},
		{
			"buffer":0,
			"byteLength":3008,
			"byteOffset":570008,
			"target":34962
		},
		{
			"buffer":0,
			"byteLength":3600,
			"byteOffset":573016,
			"target":34963
		},
		{
			"buffer":0,
			"byteLength":26856,
			"byteOffset":576616,
			"target":34962
		},
		{
			"buffer":0,
			"byteLength":26856,
			"byteOffset":603472,
			"target":34962
		},
		{
			"buffer":0,
			"byteLength":26712,
			"byteOffset":630328,
			"target":34963
		},
		{
			"buffer":0,
			"byteLength":18516,
			"byteOffset":657040,
			"target":34962
		},
		{
			"buffer":0,
			"byteLength":18516,
			"byteOffset":675556,
			"target":34962
		},
		{
			"buffer":0,
			"byteLength":18492,
			"byteOffset":694072,
			"target":34963
		},
		{
			"buffer":0,
			"byteLength":1164,
			"byteOffset":712564,
			"target":34962
		},
		{
			"buffer":0,
			"byteLength":1164,
			"byteOffset":713728,
			"target":34962
		},
		{
			"buffer":0,
			"byteLength":776,
			"byteOffset":714892,
			"target":34962
		},
		{
			"buffer":0,
			"byteLength":408,
			"byteOffset":715668,
			"target":34963
		},
		{
			"buffer":0,
			"byteLength":11184,
			"byteOffset":716076,
			"target":34962
		},
		{
			"buffer":0,
			"byteLength":11184,
			"byteOffset":727260,
			"target":34962
		},
		{
			"buffer":0,
			"byteLength":7456,
			"byteOffset":738444,
			"target":34962
		},
		{
			"buffer":0,
			"byteLength":4056,
			"byteOffset":745900,
			"target":34963
		},
		{
			"buffer":0,
			"byteLength":5220,
			"byteOffset":749956,
			"target":34962
		},
		{
			"buffer":0,
			"byteLength":5220,
			"byteOffset":755176,
			"target":34962
		},
		{
			"buffer":0,
			"byteLength":3480,
			"byteOffset":760396,
			"target":34962
		},
		{
			"buffer":0,
			"byteLength":2628,
			"byteOffset":763876,
			"target":34963
		},
		{
			"buffer":0,
			"byteLength":17856,
			"byteOffset":766504,
			"target":34962
		},
		{
			"buffer":0,
			"byteLength":17856,
			"byteOffset":784360,
			"target":34962
		},
		{
			"buffer":0,
			"byteLength":11904,
			"byteOffset":802216,
			"target":34962
		},
		{
			"buffer":0,
			"byteLength":6384,
			"byteOffset":814120,
			"target":34963
		},
		{
			"buffer":0,
			"byteLength":283416,
			"byteOffset":820504,
			"target":34962
		},
		{
			"buffer":0,
			"byteLength":283416,
			"byteOffset":1103920,
			"target":34962
		},
		{
			"buffer":0,
			"byteLength":188944,
			"byteOffset":1387336,
			"target":34962
		},
		{
			"buffer":0,
			"byteLength":264480,
			"byteOffset":1576280,
			"target":34963
		},
		{
			"buffer":0,
			"byteLength":2664,
			"byteOffset":1840760,
			"target":34962
		},
		{
			"buffer":0,
			"byteLength":2664,
			"byteOffset":1843424,
			"target":34962
		},
		{
			"buffer":0,
			"byteLength":1776,
			"byteOffset":1846088,
			"target":34962
		},
		{
			"buffer":0,
			"byteLength":1728,
			"byteOffset":1847864,
			"target":34963
		}
	],
	"buffers":[
		{
			"byteLength":1849592,
			"uri":"Cyb%20Kata%2002%20SF.bin"
		}
	]
}
